<svg width="146" height="141" viewBox="0 0 146 141" fill="none" xmlns="http://www.w3.org/2000/svg">
<path d="M97.3759 64.8456C97.4014 58.5818 96.2231 52.3716 93.9052 46.5525C93.4258 46.749 93.0807 46.9312 92.8314 47.0318C92.3209 47.2954 91.9037 47.7094 91.6362 48.2178C91.3687 48.7263 91.2638 49.3046 91.3357 49.8745C91.6265 52.421 91.7753 54.9816 91.7815 57.5446C91.7815 69.2654 87.9992 80.5021 81.1345 89.1837C74.6389 97.4002 65.919 102.683 56.4465 104.193L56.5232 104.241C59.2605 105.795 62.3362 106.657 65.4827 106.752C68.6291 106.846 71.751 106.17 74.5766 104.783C87.9513 98.2439 97.3759 82.8031 97.3759 64.8456Z" fill="#FD3456"/>
<path d="M99.9837 45.3588C99.1528 45.3337 98.3214 45.3867 97.5005 45.517C99.9069 51.6759 101.13 58.2334 101.105 64.8456C101.105 84.9795 89.8879 102.846 73.5075 109.361C74.3369 109.414 75.1662 109.442 76.0099 109.442H76.1298C80.0313 109.426 83.8803 108.54 87.3969 106.85C90.9136 105.161 94.0097 102.709 96.4602 99.6725C102.735 91.9066 106.58 81.4561 106.58 69.9941C106.64 61.3382 104.361 52.8268 99.9837 45.3588Z" fill="#FD3456"/>
<path d="M115.458 69.9892C115.465 64.7972 114.444 59.6551 112.452 54.86C111.587 52.7089 110.299 50.7529 108.665 49.1075C107.787 48.2199 106.782 47.4671 105.684 46.8736C105.405 46.725 105.127 46.5955 104.849 46.4757C108.466 53.7764 110.335 61.818 110.31 69.9653C110.31 81.6142 106.513 92.8365 99.7632 101.446C104.637 97.7768 108.592 93.0252 111.316 87.5662C114.039 82.1072 115.457 76.09 115.458 69.9892Z" fill="#FD3456"/>
<path d="M104.308 42.5113C100.64 38.7173 96.245 35.7009 91.3857 33.6419C86.5265 31.5829 81.3024 30.5235 76.025 30.5268C54.218 30.5268 36.3515 48.585 36.572 70.3872C36.6209 75.5575 37.6879 80.6674 39.712 85.4253C39.0624 85.3366 38.4061 85.3077 37.7513 85.339C35.9824 85.4205 33.4848 84.7781 32.3487 84.4618C31.2126 84.1454 30.2107 85.0562 30.6661 86.1108V86.1396C34.5826 95.1136 43.269 100.952 51.5526 100.933C52.105 100.933 52.6571 100.904 53.2065 100.847C72.6118 99.3705 88.0142 80.5261 88.0142 57.5686C88.0142 56.1304 87.9519 54.6923 87.8321 53.2542C87.8179 53.0815 87.7515 52.9172 87.6417 52.7831C87.5319 52.6491 87.3839 52.5517 87.2174 52.5038C87.0509 52.4559 86.8737 52.4599 86.7095 52.5151C86.5453 52.5704 86.4018 52.6743 86.2981 52.8131C80.9338 59.9175 72.9761 72.4054 63.029 65.8954C59.1939 63.3978 57.1566 58.024 58.3071 52.5543C60.402 42.7605 71.84 36.3033 76.883 38.3167C77.2713 38.4749 78.6951 39.0406 79.1745 40.3349C79.9127 42.3099 77.6884 43.935 76.5571 47.4345C75.3299 51.2168 76.0202 55.234 76.883 55.4066C77.8418 55.6031 79.4429 52.0845 83.4026 48.8918C86.2789 46.5716 88.4457 45.9196 89.8071 43.4652C91.1206 41.0683 88.7812 38.542 89.577 38.3167C90.3728 38.0914 91.1158 40.8526 93.484 42.2236C95.4638 43.3694 97.2279 42.6503 99.8309 42.5496C100.794 42.5427 101.756 42.6165 102.707 42.7701C102.707 42.7701 103.215 42.8372 104.021 43.005C104.084 43.0256 104.153 43.0238 104.215 42.9999C104.277 42.9761 104.33 42.9317 104.363 42.874C104.397 42.8163 104.41 42.7489 104.4 42.6829C104.39 42.6169 104.358 42.5564 104.308 42.5113ZM74.9032 72.9231C75.3381 72.3403 75.9829 71.95 76.7009 71.8349C77.0121 71.7895 77.3293 71.8086 77.6328 71.8911C77.9363 71.9735 78.2196 72.1176 78.465 72.3143C79.3998 73.1963 79.1409 74.9173 78.3164 75.9048C77.5494 76.8157 76.0393 77.4149 74.9895 76.7342C74.6971 76.5079 74.461 76.2171 74.2997 75.8844C74.1383 75.5518 74.0561 75.1863 74.0595 74.8166C74.0905 74.1013 74.3921 73.4245 74.9032 72.9231Z" fill="#290042"/>
</svg>
